<mxfile host="app.diagrams.net" modified="2024-05-07T16:48:51.980Z" agent="Mozilla/5.0 (Macintosh; Intel Mac OS X 10_15_7) AppleWebKit/605.1.15 (KHTML, like Gecko) Version/17.3 Safari/605.1.15" etag="W5B4mtWIG9IInD0tkqTN" version="24.3.1" type="device">
  <diagram name="Page-1" id="JGyxsxuAy8fLz6j7-rxd">
    <mxGraphModel dx="1122" dy="761" grid="1" gridSize="10" guides="1" tooltips="1" connect="1" arrows="1" fold="1" page="1" pageScale="1" pageWidth="827" pageHeight="1169" math="0" shadow="0">
      <root>
        <mxCell id="0" />
        <mxCell id="1" parent="0" />
        <mxCell id="kmy_e-qNhJNrR-5ZTaCu-26" style="edgeStyle=orthogonalEdgeStyle;rounded=0;orthogonalLoop=1;jettySize=auto;html=1;" parent="1" source="kmy_e-qNhJNrR-5ZTaCu-1" target="kmy_e-qNhJNrR-5ZTaCu-23" edge="1">
          <mxGeometry relative="1" as="geometry" />
        </mxCell>
        <mxCell id="kmy_e-qNhJNrR-5ZTaCu-1" value="" style="swimlane;startSize=0;" parent="1" vertex="1">
          <mxGeometry x="10" y="110" width="90" height="90" as="geometry" />
        </mxCell>
        <mxCell id="kmy_e-qNhJNrR-5ZTaCu-2" value="Data source 1&amp;nbsp;&lt;div&gt;&lt;div&gt;CSV&lt;br&gt;&lt;/div&gt;&lt;div&gt;&lt;br&gt;&lt;/div&gt;&lt;/div&gt;" style="text;html=1;align=center;verticalAlign=middle;resizable=0;points=[];autosize=1;strokeColor=none;fillColor=none;" parent="kmy_e-qNhJNrR-5ZTaCu-1" vertex="1">
          <mxGeometry x="-5" y="10" width="100" height="60" as="geometry" />
        </mxCell>
        <mxCell id="kmy_e-qNhJNrR-5ZTaCu-6" value="" style="swimlane;startSize=0;" parent="1" vertex="1">
          <mxGeometry x="7.5" y="390" width="95" height="100" as="geometry" />
        </mxCell>
        <mxCell id="kmy_e-qNhJNrR-5ZTaCu-7" value="Data source 2&lt;div&gt;API&lt;/div&gt;" style="text;html=1;align=center;verticalAlign=middle;resizable=0;points=[];autosize=1;strokeColor=none;fillColor=none;" parent="kmy_e-qNhJNrR-5ZTaCu-6" vertex="1">
          <mxGeometry x="-5" y="20" width="100" height="40" as="geometry" />
        </mxCell>
        <mxCell id="kmy_e-qNhJNrR-5ZTaCu-8" value="" style="sketch=0;outlineConnect=0;fontColor=#232F3E;gradientColor=none;fillColor=#8C4FFF;strokeColor=none;dashed=0;verticalLabelPosition=bottom;verticalAlign=top;align=center;html=1;fontSize=12;fontStyle=0;aspect=fixed;pointerEvents=1;shape=mxgraph.aws4.internet_gateway;" parent="1" vertex="1">
          <mxGeometry x="200" y="277.5" width="78" height="78" as="geometry" />
        </mxCell>
        <mxCell id="kmy_e-qNhJNrR-5ZTaCu-21" value="" style="rounded=1;arcSize=10;dashed=0;fillColor=none;gradientColor=none;strokeWidth=2;" parent="1" vertex="1">
          <mxGeometry x="241" y="20" width="1329" height="626" as="geometry" />
        </mxCell>
        <mxCell id="kmy_e-qNhJNrR-5ZTaCu-22" value="" style="dashed=0;html=1;shape=mxgraph.aws3.cloud;fillColor=#F58536;gradientColor=none;dashed=0;" parent="1" vertex="1">
          <mxGeometry x="261" y="14" width="52" height="36" as="geometry" />
        </mxCell>
        <mxCell id="kmy_e-qNhJNrR-5ZTaCu-41" style="edgeStyle=orthogonalEdgeStyle;rounded=0;orthogonalLoop=1;jettySize=auto;html=1;entryX=0;entryY=0.5;entryDx=0;entryDy=0;entryPerimeter=0;" parent="1" source="kmy_e-qNhJNrR-5ZTaCu-23" target="kmy_e-qNhJNrR-5ZTaCu-40" edge="1">
          <mxGeometry relative="1" as="geometry" />
        </mxCell>
        <mxCell id="kmy_e-qNhJNrR-5ZTaCu-23" value="S3 loading&amp;nbsp;&lt;div&gt;Zone 1&lt;/div&gt;&lt;div&gt;CSV and API&lt;/div&gt;" style="sketch=0;outlineConnect=0;fontColor=#232F3E;gradientColor=none;strokeColor=#ffffff;fillColor=#232F3E;dashed=0;verticalLabelPosition=middle;verticalAlign=bottom;align=center;html=1;whiteSpace=wrap;fontSize=10;fontStyle=1;spacing=3;shape=mxgraph.aws4.productIcon;prIcon=mxgraph.aws4.s3;" parent="1" vertex="1">
          <mxGeometry x="410" y="120" width="80" height="130" as="geometry" />
        </mxCell>
        <mxCell id="kmy_e-qNhJNrR-5ZTaCu-36" style="edgeStyle=orthogonalEdgeStyle;rounded=0;orthogonalLoop=1;jettySize=auto;html=1;" parent="1" source="kmy_e-qNhJNrR-5ZTaCu-25" target="kmy_e-qNhJNrR-5ZTaCu-23" edge="1">
          <mxGeometry relative="1" as="geometry">
            <Array as="points">
              <mxPoint x="594" y="350" />
              <mxPoint x="450" y="350" />
            </Array>
          </mxGeometry>
        </mxCell>
        <mxCell id="kmy_e-qNhJNrR-5ZTaCu-25" value="" style="outlineConnect=0;dashed=0;verticalLabelPosition=bottom;verticalAlign=top;align=center;html=1;shape=mxgraph.aws3.lambda_function;fillColor=#F58534;gradientColor=none;" parent="1" vertex="1">
          <mxGeometry x="559" y="395" width="69" height="72" as="geometry" />
        </mxCell>
        <mxCell id="kmy_e-qNhJNrR-5ZTaCu-37" value="L1" style="text;html=1;align=center;verticalAlign=middle;whiteSpace=wrap;rounded=0;" parent="1" vertex="1">
          <mxGeometry x="565" y="469" width="60" height="30" as="geometry" />
        </mxCell>
        <mxCell id="kmy_e-qNhJNrR-5ZTaCu-42" style="edgeStyle=orthogonalEdgeStyle;rounded=0;orthogonalLoop=1;jettySize=auto;html=1;" parent="1" source="kmy_e-qNhJNrR-5ZTaCu-40" target="kmy_e-qNhJNrR-5ZTaCu-23" edge="1">
          <mxGeometry relative="1" as="geometry" />
        </mxCell>
        <mxCell id="kmy_e-qNhJNrR-5ZTaCu-45" style="edgeStyle=orthogonalEdgeStyle;rounded=0;orthogonalLoop=1;jettySize=auto;html=1;" parent="1" source="kmy_e-qNhJNrR-5ZTaCu-40" target="kmy_e-qNhJNrR-5ZTaCu-44" edge="1">
          <mxGeometry relative="1" as="geometry" />
        </mxCell>
        <mxCell id="kmy_e-qNhJNrR-5ZTaCu-40" value="" style="outlineConnect=0;dashed=0;verticalLabelPosition=bottom;verticalAlign=top;align=center;html=1;shape=mxgraph.aws3.lambda_function;fillColor=#F58534;gradientColor=none;" parent="1" vertex="1">
          <mxGeometry x="640" y="205.5" width="69" height="72" as="geometry" />
        </mxCell>
        <mxCell id="kmy_e-qNhJNrR-5ZTaCu-43" value="L2 (T1)" style="text;html=1;align=center;verticalAlign=middle;whiteSpace=wrap;rounded=0;" parent="1" vertex="1">
          <mxGeometry x="649" y="280" width="60" height="30" as="geometry" />
        </mxCell>
        <mxCell id="kmy_e-qNhJNrR-5ZTaCu-44" value="S3 Zone 2&lt;div&gt;&lt;br&gt;&lt;/div&gt;" style="sketch=0;outlineConnect=0;fontColor=#232F3E;gradientColor=none;strokeColor=#ffffff;fillColor=#232F3E;dashed=0;verticalLabelPosition=middle;verticalAlign=bottom;align=center;html=1;whiteSpace=wrap;fontSize=10;fontStyle=1;spacing=3;shape=mxgraph.aws4.productIcon;prIcon=mxgraph.aws4.s3;" parent="1" vertex="1">
          <mxGeometry x="760" y="184.75" width="80" height="113.5" as="geometry" />
        </mxCell>
        <mxCell id="kmy_e-qNhJNrR-5ZTaCu-46" value="In L2, we should clean the data from the null values, the datatypes, the duplicates, standardise the column names, removing unecessary columns, generating new feature, merging" style="text;html=1;align=left;verticalAlign=middle;whiteSpace=wrap;rounded=0;" parent="1" vertex="1">
          <mxGeometry x="130" y="780" width="350" height="20" as="geometry" />
        </mxCell>
        <mxCell id="kmy_e-qNhJNrR-5ZTaCu-69" style="edgeStyle=orthogonalEdgeStyle;rounded=0;orthogonalLoop=1;jettySize=auto;html=1;" parent="1" source="kmy_e-qNhJNrR-5ZTaCu-47" edge="1">
          <mxGeometry relative="1" as="geometry">
            <mxPoint x="1290" y="345" as="targetPoint" />
          </mxGeometry>
        </mxCell>
        <mxCell id="kmy_e-qNhJNrR-5ZTaCu-47" value="" style="swimlane;startSize=0;" parent="1" vertex="1">
          <mxGeometry x="990" y="100" width="190" height="490" as="geometry" />
        </mxCell>
        <mxCell id="kmy_e-qNhJNrR-5ZTaCu-56" style="edgeStyle=orthogonalEdgeStyle;rounded=0;orthogonalLoop=1;jettySize=auto;html=1;" parent="kmy_e-qNhJNrR-5ZTaCu-47" edge="1">
          <mxGeometry relative="1" as="geometry">
            <mxPoint x="101" y="138" as="sourcePoint" />
            <mxPoint x="100" y="200" as="targetPoint" />
          </mxGeometry>
        </mxCell>
        <mxCell id="kmy_e-qNhJNrR-5ZTaCu-51" value="Glue crawler" style="sketch=0;points=[[0,0,0],[0.25,0,0],[0.5,0,0],[0.75,0,0],[1,0,0],[0,1,0],[0.25,1,0],[0.5,1,0],[0.75,1,0],[1,1,0],[0,0.25,0],[0,0.5,0],[0,0.75,0],[1,0.25,0],[1,0.5,0],[1,0.75,0]];outlineConnect=0;fontColor=#232F3E;fillColor=#8C4FFF;strokeColor=#ffffff;dashed=0;verticalLabelPosition=bottom;verticalAlign=top;align=center;html=1;fontSize=12;fontStyle=0;aspect=fixed;shape=mxgraph.aws4.resourceIcon;resIcon=mxgraph.aws4.glue;" parent="kmy_e-qNhJNrR-5ZTaCu-47" vertex="1">
          <mxGeometry x="61" y="60" width="78" height="78" as="geometry" />
        </mxCell>
        <mxCell id="kmy_e-qNhJNrR-5ZTaCu-53" value="Glue Job" style="sketch=0;outlineConnect=0;fontColor=#232F3E;gradientColor=none;strokeColor=#ffffff;fillColor=#232F3E;dashed=0;verticalLabelPosition=middle;verticalAlign=bottom;align=center;html=1;whiteSpace=wrap;fontSize=10;fontStyle=1;spacing=3;shape=mxgraph.aws4.productIcon;prIcon=mxgraph.aws4.glue;" parent="kmy_e-qNhJNrR-5ZTaCu-47" vertex="1">
          <mxGeometry x="59" y="200" width="80" height="100" as="geometry" />
        </mxCell>
        <mxCell id="kmy_e-qNhJNrR-5ZTaCu-48" value="GLUE" style="text;html=1;align=center;verticalAlign=middle;whiteSpace=wrap;rounded=0;" parent="1" vertex="1">
          <mxGeometry x="1060" y="100" width="60" height="30" as="geometry" />
        </mxCell>
        <mxCell id="kmy_e-qNhJNrR-5ZTaCu-62" style="edgeStyle=orthogonalEdgeStyle;rounded=0;orthogonalLoop=1;jettySize=auto;html=1;" parent="1" source="kmy_e-qNhJNrR-5ZTaCu-50" target="kmy_e-qNhJNrR-5ZTaCu-60" edge="1">
          <mxGeometry relative="1" as="geometry">
            <Array as="points">
              <mxPoint x="1089" y="580" />
              <mxPoint x="1300" y="580" />
              <mxPoint x="1300" y="591" />
            </Array>
          </mxGeometry>
        </mxCell>
        <mxCell id="kmy_e-qNhJNrR-5ZTaCu-50" value="Glue catalogue" style="sketch=0;outlineConnect=0;fontColor=#232F3E;gradientColor=none;fillColor=#8C4FFF;strokeColor=none;dashed=0;verticalLabelPosition=bottom;verticalAlign=top;align=center;html=1;fontSize=12;fontStyle=0;aspect=fixed;pointerEvents=1;shape=mxgraph.aws4.glue_data_catalog;" parent="1" vertex="1">
          <mxGeometry x="1053" y="460" width="72" height="78" as="geometry" />
        </mxCell>
        <mxCell id="kmy_e-qNhJNrR-5ZTaCu-52" style="edgeStyle=orthogonalEdgeStyle;rounded=0;orthogonalLoop=1;jettySize=auto;html=1;" parent="1" source="kmy_e-qNhJNrR-5ZTaCu-51" target="kmy_e-qNhJNrR-5ZTaCu-44" edge="1">
          <mxGeometry relative="1" as="geometry" />
        </mxCell>
        <mxCell id="kmy_e-qNhJNrR-5ZTaCu-55" style="edgeStyle=orthogonalEdgeStyle;rounded=0;orthogonalLoop=1;jettySize=auto;html=1;entryX=0;entryY=0.5;entryDx=0;entryDy=0;entryPerimeter=0;" parent="1" source="kmy_e-qNhJNrR-5ZTaCu-44" target="kmy_e-qNhJNrR-5ZTaCu-51" edge="1">
          <mxGeometry relative="1" as="geometry" />
        </mxCell>
        <mxCell id="kmy_e-qNhJNrR-5ZTaCu-57" style="edgeStyle=orthogonalEdgeStyle;rounded=0;orthogonalLoop=1;jettySize=auto;html=1;" parent="1" source="kmy_e-qNhJNrR-5ZTaCu-53" target="kmy_e-qNhJNrR-5ZTaCu-50" edge="1">
          <mxGeometry relative="1" as="geometry" />
        </mxCell>
        <mxCell id="kmy_e-qNhJNrR-5ZTaCu-64" style="edgeStyle=orthogonalEdgeStyle;rounded=0;orthogonalLoop=1;jettySize=auto;html=1;" parent="1" source="kmy_e-qNhJNrR-5ZTaCu-60" target="kmy_e-qNhJNrR-5ZTaCu-50" edge="1">
          <mxGeometry relative="1" as="geometry">
            <Array as="points">
              <mxPoint x="1300" y="591" />
              <mxPoint x="1300" y="580" />
              <mxPoint x="1089" y="580" />
            </Array>
          </mxGeometry>
        </mxCell>
        <mxCell id="kmy_e-qNhJNrR-5ZTaCu-65" style="edgeStyle=orthogonalEdgeStyle;rounded=0;orthogonalLoop=1;jettySize=auto;html=1;" parent="1" source="kmy_e-qNhJNrR-5ZTaCu-60" target="kmy_e-qNhJNrR-5ZTaCu-61" edge="1">
          <mxGeometry relative="1" as="geometry" />
        </mxCell>
        <mxCell id="kmy_e-qNhJNrR-5ZTaCu-60" value="Amazon Athena" style="sketch=0;outlineConnect=0;fontColor=#232F3E;gradientColor=none;strokeColor=#ffffff;fillColor=#232F3E;dashed=0;verticalLabelPosition=middle;verticalAlign=bottom;align=center;html=1;whiteSpace=wrap;fontSize=10;fontStyle=1;spacing=3;shape=mxgraph.aws4.productIcon;prIcon=mxgraph.aws4.athena;" parent="1" vertex="1">
          <mxGeometry x="1270" y="528" width="80" height="110" as="geometry" />
        </mxCell>
        <mxCell id="kmy_e-qNhJNrR-5ZTaCu-61" value="Amazon S3" style="sketch=0;outlineConnect=0;fontColor=#232F3E;gradientColor=none;strokeColor=#ffffff;fillColor=#232F3E;dashed=0;verticalLabelPosition=middle;verticalAlign=bottom;align=center;html=1;whiteSpace=wrap;fontSize=10;fontStyle=1;spacing=3;shape=mxgraph.aws4.productIcon;prIcon=mxgraph.aws4.s3;" parent="1" vertex="1">
          <mxGeometry x="1420" y="533" width="80" height="100" as="geometry" />
        </mxCell>
        <mxCell id="kmy_e-qNhJNrR-5ZTaCu-67" value="Quick sight" style="sketch=0;points=[[0,0,0],[0.25,0,0],[0.5,0,0],[0.75,0,0],[1,0,0],[0,1,0],[0.25,1,0],[0.5,1,0],[0.75,1,0],[1,1,0],[0,0.25,0],[0,0.5,0],[0,0.75,0],[1,0.25,0],[1,0.5,0],[1,0.75,0]];outlineConnect=0;fontColor=#232F3E;fillColor=#8C4FFF;strokeColor=#ffffff;dashed=0;verticalLabelPosition=bottom;verticalAlign=top;align=center;html=1;fontSize=12;fontStyle=0;aspect=fixed;shape=mxgraph.aws4.resourceIcon;resIcon=mxgraph.aws4.quicksight;" parent="1" vertex="1">
          <mxGeometry x="1430" y="116" width="78" height="78" as="geometry" />
        </mxCell>
        <mxCell id="zR3ldDJEZ2WB0MMs6DUa-4" style="edgeStyle=orthogonalEdgeStyle;rounded=0;orthogonalLoop=1;jettySize=auto;html=1;" edge="1" parent="1" source="kmy_e-qNhJNrR-5ZTaCu-7" target="kmy_e-qNhJNrR-5ZTaCu-25">
          <mxGeometry relative="1" as="geometry" />
        </mxCell>
        <mxCell id="zR3ldDJEZ2WB0MMs6DUa-7" style="edgeStyle=orthogonalEdgeStyle;rounded=0;orthogonalLoop=1;jettySize=auto;html=1;" edge="1" parent="1" source="zR3ldDJEZ2WB0MMs6DUa-5" target="kmy_e-qNhJNrR-5ZTaCu-67">
          <mxGeometry relative="1" as="geometry" />
        </mxCell>
        <mxCell id="zR3ldDJEZ2WB0MMs6DUa-5" value="Amazon RDS" style="sketch=0;outlineConnect=0;fontColor=#232F3E;gradientColor=none;strokeColor=#ffffff;fillColor=#232F3E;dashed=0;verticalLabelPosition=middle;verticalAlign=bottom;align=center;html=1;whiteSpace=wrap;fontSize=10;fontStyle=1;spacing=3;shape=mxgraph.aws4.productIcon;prIcon=mxgraph.aws4.rds;" vertex="1" parent="1">
          <mxGeometry x="1290" y="296" width="80" height="100" as="geometry" />
        </mxCell>
        <mxCell id="zR3ldDJEZ2WB0MMs6DUa-8" value="VPC" style="sketch=0;outlineConnect=0;gradientColor=none;html=1;whiteSpace=wrap;fontSize=12;fontStyle=0;shape=mxgraph.aws4.group;grIcon=mxgraph.aws4.group_vpc;strokeColor=#879196;fillColor=none;verticalAlign=top;align=left;spacingLeft=30;fontColor=#879196;dashed=0;" vertex="1" parent="1">
          <mxGeometry x="300" y="80" width="1240" height="560" as="geometry" />
        </mxCell>
        <mxCell id="zR3ldDJEZ2WB0MMs6DUa-9" value="Region : N. Virginia US East-1" style="text;html=1;align=center;verticalAlign=middle;whiteSpace=wrap;rounded=0;" vertex="1" parent="1">
          <mxGeometry x="313" y="20" width="150" height="30" as="geometry" />
        </mxCell>
      </root>
    </mxGraphModel>
  </diagram>
</mxfile>
